<svg xmlns="http://www.w3.org/2000/svg" width="68" height="50pt" viewBox="0 0 51 50"><path style="stroke:none;fill-rule:evenodd;fill:#fff;fill-opacity:1" d="M30.086 36.906c5.637-.672 11.633-2.738 11.633-12.554 0-2.79-.973-5.063-2.563-6.82.258-.673 1.078-3.204-.308-6.716 0 0-2.047-.671-6.868 2.582-2.046-.566-4.304-.93-6.406-.93-2.152 0-4.406.364-6.406.93-4.867-3.253-6.918-2.582-6.918-2.582-1.383 3.512-.563 6.043-.309 6.715-1.59 1.758-2.562 4.032-2.562 6.82 0 9.817 5.996 11.883 11.633 12.555-.715.621-1.383 1.809-1.637 3.461-1.438.621-5.18 1.809-7.434-2.117 0 0-1.332-2.43-3.843-2.582 0 0-2.512-.05-.203 1.547 0 0 1.687.777 2.816 3.719 0 0 1.539 4.91 8.61 3.359l-.114 5.14s-.113.59-.719.735c-1.18.941-1.906.84-1.465 1.246.825.758 4.934 1.133 8.622 1.137 1.433.004 6.175-.211 8.648-1.563.527-.289-.914-.37-1.461-.816 0 0-.34-.258-.512-.375-.101-.067-.246-.262-.246-.262l-.297-7.926c0-2.379-.77-3.925-1.691-4.703zm0 0"/></svg>