<svg xmlns="http://www.w3.org/2000/svg" width="50pt" height="50pt" viewBox="0 0 50 50"><path style="stroke:none;fill-rule:nonzero;fill:#fff;fill-opacity:1" d="M43.059 28.754v13.484h-7.817V29.656c0-3.16-1.129-5.316-3.957-5.316-2.16 0-3.445 1.453-4.012 2.86-.207.503-.257 1.202-.257 1.905v13.133h-7.82s.105-21.308 0-23.515h7.816v3.336l-.051.074h.05v-.074c1.04-1.602 2.895-3.887 7.048-3.887 5.144 0 9 3.36 9 10.582zM11.016 7.39c-2.676 0-4.426 1.754-4.426 4.062 0 2.254 1.7 4.063 4.324 4.063h.05c2.727 0 4.423-1.809 4.423-4.063-.051-2.308-1.696-4.062-4.371-4.062zM7.055 42.238h7.816V18.723H7.055zm0 0"/></svg>